# xmcd
#
# Track frame offsets:
#	150
#	13073
#	24301
#	35716
#	48151
#	57526
#	69076
#	80176
#	93301
#	105526
#	119791
#	131491
#	144766
#	155551
#	165309
#	178404
#	191867
#	203417
#	216542
#	227342
#
# Disc length: 3189 seconds
#
# Revision: 1
# Processed by: cddbd v1.5.2PL0 Copyright (c) Steve Scherf et al.
# Submitted via: audiograbber 1.83.01
#
DISCID=180c7314
DTITLE=Willie Nelson - Country Superstar
DYEAR=1980
DGENRE=Country
TTITLE0=Help Me Make It Through The Night
TTITLE1=Stay All Night
TTITLE2=One In A Row
TTITLE3=Yesterday
TTITLE4=San Antonio Rose
TTITLE5=Once More With Feeling
TTITLE6=Crazy Arms
TTITLE7=Fire And Rain
TTITLE8=Bloody Mary Morning
TTITLE9=Sweet Memories
TTITLE10=Funny How Time Slips Away
TTITLE11=Whiskey River
TTITLE12=I'm So Lonesome I Could Cry
TTITLE13=Bring Me Sunshine
TTITLE14=I Love You Because
TTITLE15=After Teh Fire Is Gone
TTITLE16=Touch Me
TTITLE17=Both Sides Now
TTITLE18=Night Life
TTITLE19=Born To Lose
EXTD=
EXTT0=
EXTT1=
EXTT2=
EXTT3=
EXTT4=
EXTT5=
EXTT6=
EXTT7=
EXTT8=
EXTT9=
EXTT10=
EXTT11=
EXTT12=
EXTT13=
EXTT14=
EXTT15=
EXTT16=
EXTT17=
EXTT18=
EXTT19=
PLAYORDER=
